<svg width="21" height="21" viewBox="0 0 21 21" fill="none" xmlns="http://www.w3.org/2000/svg">
<g clip-path="url(#clip0_11_1521)">
<path d="M19.2504 1.96875H16.4062V0.65625C16.4062 0.293344 16.1129 0 15.75 0C15.3871 0 15.0938 0.293344 15.0938 0.65625V1.96875H11.1562V0.65625C11.1562 0.293344 10.8623 0 10.5 0C10.1377 0 9.84375 0.293344 9.84375 0.65625V1.96875H5.90625V0.65625C5.90625 0.293344 5.61225 0 5.25 0C4.88775 0 4.59375 0.293344 4.59375 0.65625V1.96875H1.75022C0.783562 1.96875 0 2.75166 0 3.71831V19.2498C0 20.2164 0.783562 21 1.75022 21H19.2504C20.2171 21 21 20.2164 21 19.2498V3.71831C21 2.75166 20.2171 1.96875 19.2504 1.96875ZM19.6875 19.2498C19.6875 19.4913 19.4913 19.6875 19.2504 19.6875H1.75022C1.50872 19.6875 1.3125 19.4913 1.3125 19.2498V3.71831C1.3125 3.47747 1.50872 3.28125 1.75022 3.28125H4.59375V4.59375C4.59375 4.95666 4.88775 5.25 5.25 5.25C5.61225 5.25 5.90625 4.95666 5.90625 4.59375V3.28125H9.84375V4.59375C9.84375 4.95666 10.1377 5.25 10.5 5.25C10.8623 5.25 11.1562 4.95666 11.1562 4.59375V3.28125H15.0938V4.59375C15.0938 4.95666 15.3871 5.25 15.75 5.25C16.1129 5.25 16.4062 4.95666 16.4062 4.59375V3.28125H19.2504C19.4913 3.28125 19.6875 3.47747 19.6875 3.71831V19.2498Z" fill="#333332"/>
<path d="M7.21875 7.875H4.59375V9.84375H7.21875V7.875Z" fill="#333332"/>
<path d="M7.21875 11.1562H4.59375V13.125H7.21875V11.1562Z" fill="#333332"/>
<path d="M7.21875 14.4375H4.59375V16.4062H7.21875V14.4375Z" fill="#333332"/>
<path d="M11.8125 14.4375H9.1875V16.4062H11.8125V14.4375Z" fill="#333332"/>
<path d="M11.8125 11.1562H9.1875V13.125H11.8125V11.1562Z" fill="#333332"/>
<path d="M11.8125 7.875H9.1875V9.84375H11.8125V7.875Z" fill="#333332"/>
<path d="M16.4062 14.4375H13.7812V16.4062H16.4062V14.4375Z" fill="#333332"/>
<path d="M16.4062 11.1562H13.7812V13.125H16.4062V11.1562Z" fill="#333332"/>
<path d="M16.4062 7.875H13.7812V9.84375H16.4062V7.875Z" fill="#333332"/>
</g>
<defs>
<clipPath id="clip0_11_1521">
<rect width="21" height="21" fill="white"/>
</clipPath>
</defs>
</svg>
