<svg width="32" height="32" viewBox="0 0 32 32" fill="none" xmlns="http://www.w3.org/2000/svg">
<g clip-path="url(#clip0_11_754)">
<path d="M31 4H5C4.448 4 4 4.447 4 5V23C4 23.553 4.448 24 5 24H18C18.008 24 18.014 23.996 18.022 23.996C18.238 24.282 18.485 24.54 18.757 24.774C18.748 24.812 18.726 24.843 18.721 24.882L18.007 30.882C17.961 31.27 18.144 31.649 18.477 31.853C18.81 32.058 19.231 32.05 19.555 31.832L22 30.202L24.445 31.832C24.613 31.944 24.807 32 25 32C25.181 32 25.362 31.951 25.523 31.853C25.856 31.649 26.039 31.27 25.993 30.882L25.279 24.882C25.274 24.843 25.252 24.811 25.243 24.774C25.515 24.54 25.762 24.282 25.978 23.996C25.986 23.996 25.992 24 26 24H31C31.552 24 32 23.553 32 23V5C32 4.447 31.552 4 31 4ZM30 8.858C28.601 8.494 27.506 7.399 27.142 6H30V8.858ZM8.858 6C8.494 7.399 7.399 8.494 6 8.858V6H8.858ZM6 19.142C7.399 19.506 8.494 20.601 8.858 22H6V19.142ZM10.91 22C10.486 19.493 8.507 17.514 6 17.09V10.91C8.507 10.486 10.486 8.507 10.91 6H25.09C25.513 8.507 27.493 10.486 30 10.91V17.091C28.646 17.32 27.448 18.001 26.563 18.976C25.783 17.226 24.035 16 22 16C19.243 16 17 18.243 17 21C17 21.342 17.035 21.677 17.101 22H10.91ZM22 24C20.346 24 19 22.654 19 21C19 19.346 20.346 18 22 18C23.654 18 25 19.346 25 21C25 22.654 23.654 24 22 24ZM23.75 28.965L22.554 28.168C22.218 27.943 21.781 27.943 21.445 28.168L20.249 28.965L20.628 25.785C21.067 25.911 21.521 26 22 26C22.479 26 22.933 25.911 23.372 25.785L23.75 28.965ZM27.142 22C27.506 20.601 28.601 19.506 30 19.142V22H27.142Z" fill="#101820"/>
<path d="M15 10H21C21.552 10 22 9.553 22 9C22 8.447 21.552 8 21 8H15C14.448 8 14 8.447 14 9C14 9.553 14.448 10 15 10Z" fill="#101820"/>
<path d="M28 13C28 12.447 27.552 12 27 12H9C8.448 12 8 12.447 8 13C8 13.553 8.448 14 9 14H27C27.552 14 28 13.553 28 13Z" fill="#101820"/>
</g>
<defs>
<clipPath id="clip0_11_754">
<rect width="32" height="32" fill="white"/>
</clipPath>
</defs>
</svg>
