<svg width="32" height="32" viewBox="0 0 32 32" fill="none" xmlns="http://www.w3.org/2000/svg">
<path d="M4.18747 9.29375C4.87497 9.65625 14.425 14.8625 14.7812 15.05C15.1375 15.2375 15.5 15.325 16.0625 15.325C16.625 15.325 16.9875 15.2375 17.3437 15.05C17.7 14.8625 27.25 9.65625 27.9375 9.29375C28.1937 9.1625 28.625 8.925 28.7187 8.65625C28.8812 8.18125 28.7062 8 28.0125 8H16.0625H4.11247C3.41872 8 3.24372 8.1875 3.40622 8.65625C3.49997 8.93125 3.93122 9.1625 4.18747 9.29375Z" fill="#101820"/>
<path d="M28.4812 9.43335C27.9688 9.69585 23.3687 12.9709 20.325 14.9396L25.4625 20.7209C25.5875 20.8459 25.6437 20.9959 25.575 21.0709C25.5 21.1396 25.3375 21.1021 25.2062 20.9834L19.0437 15.7834C18.1125 16.3834 17.4562 16.7959 17.3437 16.8584C16.8625 17.1021 16.525 17.1334 16.0625 17.1334C15.6 17.1334 15.2625 17.1021 14.7812 16.8584C14.6625 16.7959 14.0125 16.3834 13.0812 15.7834L6.91875 20.9834C6.79375 21.1084 6.625 21.1459 6.55 21.0709C6.475 21.0021 6.53125 20.8459 6.65625 20.7209L11.7875 14.9396C8.74375 12.9709 4.09375 9.69585 3.58125 9.43335C3.03125 9.1521 3 9.48335 3 9.7396C3 9.99585 3 22.5521 3 22.5521C3 23.1334 3.85625 23.8584 4.46875 23.8584H16.0625H27.6562C28.2687 23.8584 29 23.1271 29 22.5521C29 22.5521 29 9.9896 29 9.7396C29 9.4771 29.0375 9.1521 28.4812 9.43335Z" fill="#101820"/>
</svg>
