<svg width="20" height="20" viewBox="0 0 20 20" fill="none" xmlns="http://www.w3.org/2000/svg">
<path d="M14.625 2H5.875C5.37772 2 4.90081 2.19754 4.54917 2.54917C4.19754 2.90081 4 3.37772 4 3.875V17.625C4 18.1223 4.19754 18.5992 4.54917 18.9508C4.90081 19.3025 5.37772 19.5 5.875 19.5H14.625C15.1223 19.5 15.5992 19.3025 15.9508 18.9508C16.3025 18.5992 16.5 18.1223 16.5 17.625V3.875C16.5 3.37772 16.3025 2.90081 15.9508 2.54917C15.5992 2.19754 15.1223 2 14.625 2ZM15.25 17.625C15.25 17.7908 15.1842 17.9497 15.0669 18.0669C14.9497 18.1842 14.7908 18.25 14.625 18.25H5.875C5.70924 18.25 5.55027 18.1842 5.43306 18.0669C5.31585 17.9497 5.25 17.7908 5.25 17.625V3.875C5.25 3.70924 5.31585 3.55027 5.43306 3.43306C5.55027 3.31585 5.70924 3.25 5.875 3.25H14.625C14.7908 3.25 14.9497 3.31585 15.0669 3.43306C15.1842 3.55027 15.25 3.70924 15.25 3.875V17.625Z" fill="black"/>
<path d="M8.13137 10.075C8.20845 10.1078 8.29134 10.1248 8.37512 10.125C8.4978 10.1249 8.61774 10.0887 8.71999 10.0209C8.82224 9.95309 8.90227 9.8567 8.95012 9.74373L9.32512 8.87498H11.2001L11.5751 9.74373C11.6212 9.85288 11.6974 9.94667 11.7948 10.0142C11.8922 10.0817 12.0067 10.1201 12.1251 10.125C12.2089 10.1248 12.2918 10.1078 12.3689 10.075C12.5213 10.0102 12.6418 9.88765 12.7039 9.73414C12.766 9.58063 12.7646 9.40875 12.7001 9.25623L10.8251 4.88123C10.7862 4.76225 10.7082 4.65988 10.6039 4.5907C10.4995 4.52151 10.3749 4.48955 10.2501 4.49998C10.1257 4.49174 10.0021 4.52458 9.89821 4.59347C9.79432 4.66235 9.71594 4.76346 9.67512 4.88123L7.80012 9.25623C7.7356 9.40875 7.73425 9.58063 7.79635 9.73414C7.85846 9.88765 7.97895 10.0102 8.13137 10.075ZM9.85637 7.62498L10.2501 6.71248L10.6439 7.62498H9.85637Z" fill="black"/>
<path d="M6.5 14.5H10.25C10.4158 14.5 10.5747 14.4342 10.6919 14.3169C10.8092 14.1997 10.875 14.0408 10.875 13.875C10.875 13.7092 10.8092 13.5503 10.6919 13.4331C10.5747 13.3158 10.4158 13.25 10.25 13.25H6.5C6.33424 13.25 6.17527 13.3158 6.05806 13.4331C5.94085 13.5503 5.875 13.7092 5.875 13.875C5.875 14.0408 5.94085 14.1997 6.05806 14.3169C6.17527 14.4342 6.33424 14.5 6.5 14.5Z" fill="black"/>
<path d="M13.375 15.75H6.5C6.33424 15.75 6.17527 15.8158 6.05806 15.9331C5.94085 16.0503 5.875 16.2092 5.875 16.375C5.875 16.5408 5.94085 16.6997 6.05806 16.8169C6.17527 16.9342 6.33424 17 6.5 17H13.375C13.5408 17 13.6997 16.9342 13.8169 16.8169C13.9342 16.6997 14 16.5408 14 16.375C14 16.2092 13.9342 16.0503 13.8169 15.9331C13.6997 15.8158 13.5408 15.75 13.375 15.75Z" fill="black"/>
</svg>
