<svg width="21" height="21" viewBox="0 0 21 21" fill="none" xmlns="http://www.w3.org/2000/svg">
<path d="M2.25 0C1.008 0 0 0.9401 0 2.1C0 3.2599 1.008 4.2 2.25 4.2C4.69275 4.2 8.25 4.2 8.25 4.2C8.25 4.2 8.25 14.3934 8.25 18.9C8.25 20.0599 9.258 21 10.5 21C11.7428 21 12.75 20.0599 12.75 18.9C12.75 14.3934 12.75 4.2 12.75 4.2C12.75 4.2 16.3073 4.2 18.75 4.2C19.347 4.2 19.9193 3.9788 20.3415 3.5854C20.763 3.1913 21 2.6572 21 2.1C21 0.9401 19.9928 0 18.75 0C14.7135 0 6.28725 0 2.25 0Z" fill="#00F674"/>
</svg>
