<svg width="21" height="21" viewBox="0 0 21 21" fill="none" xmlns="http://www.w3.org/2000/svg">
<path d="M9.6117 2.76906C9.69115 2.2924 9.36915 1.84154 8.89254 1.76206C8.41584 1.68256 7.96498 2.00455 7.8855 2.48121L7.13228 6.99801L3.49945 7.00014C3.0162 7.00043 2.62468 7.39241 2.62497 7.87566C2.62525 8.35891 3.01723 8.75044 3.50048 8.75018L6.84043 8.74817L6.25671 12.2485L2.62461 12.2502C2.14136 12.2504 1.74978 12.6423 1.75 13.1255C1.75022 13.6088 2.14214 14.0004 2.62539 14.0002L5.96487 13.9987L5.25905 18.2312C5.17955 18.7078 5.50154 19.1587 5.9782 19.2382C6.45487 19.3177 6.90572 18.9957 6.98521 18.519L7.73916 13.9979L12.0928 13.9959L11.3869 18.2313C11.3075 18.7079 11.6294 19.1588 12.1061 19.2382C12.5828 19.3176 13.0337 18.9956 13.113 18.519L13.867 13.9951L17.5004 13.9935C17.9836 13.9933 18.3752 13.6014 18.375 13.1181C18.3748 12.6349 17.9828 12.2433 17.4996 12.2435L14.1587 12.245L14.7423 8.74353L18.3754 8.74138C18.8587 8.7411 19.2503 8.34912 19.25 7.86587C19.2496 7.38262 18.8577 6.9911 18.3745 6.99138L15.034 6.99335L15.738 2.76899C15.8175 2.29231 15.4955 1.84149 15.0189 1.76204C14.5422 1.6826 14.0913 2.00462 14.0119 2.48129L13.2597 6.99439L8.90662 6.99696L9.6117 2.76906ZM8.61477 8.74713L12.968 8.74457L12.3845 12.2458L8.03101 12.2477L8.61477 8.74713Z" fill="#212121"/>
</svg>
