<svg width="24" height="21" viewBox="0 0 24 21" fill="none" xmlns="http://www.w3.org/2000/svg">
<g clip-path="url(#clip0_11_583)">
<path d="M12 20.3438C9.77497 20.3438 7.59989 19.7664 5.74984 18.6848C3.89979 17.6031 2.45785 16.0658 1.60636 14.267C0.754875 12.4683 0.532087 10.4891 0.966171 8.57958C1.40025 6.67008 2.47171 4.9161 4.04505 3.53942C5.61839 2.16275 7.62295 1.22522 9.80524 0.845399C11.9875 0.465576 14.2495 0.660515 16.3052 1.40557C18.3609 2.15062 20.1179 3.41231 21.354 5.03111C22.5902 6.64991 23.25 8.55309 23.25 10.5C23.25 13.1107 22.0647 15.6145 19.955 17.4606C17.8452 19.3066 14.9837 20.3438 12 20.3438ZM12 1.96875C10.0716 1.96875 8.18657 2.4691 6.5832 3.40653C4.97982 4.34396 3.73013 5.67635 2.99218 7.23524C2.25423 8.79412 2.06114 10.5095 2.43735 12.1644C2.81355 13.8193 3.74215 15.3394 5.10571 16.5325C6.46928 17.7256 8.20656 18.5381 10.0979 18.8673C11.9892 19.1965 13.9496 19.0276 15.7312 18.3819C17.5127 17.7361 19.0355 16.6427 20.1068 15.2397C21.1782 13.8368 21.75 12.1873 21.75 10.5C21.75 8.23738 20.7228 6.06742 18.8943 4.4675C17.0658 2.86758 14.5859 1.96875 12 1.96875Z" fill="#BEBDC0"/>
<path d="M10.2526 14.4375C10.1498 14.4372 10.0481 14.4184 9.95392 14.3823C9.85973 14.3461 9.77504 14.2934 9.70511 14.2275L6.20261 10.9462C6.08294 10.8171 6.02374 10.653 6.03698 10.4871C6.05022 10.3213 6.13492 10.166 6.27395 10.0527C6.41299 9.93937 6.596 9.87644 6.78601 9.87663C6.97603 9.87682 7.15887 9.94011 7.29761 10.0537L10.2526 12.8165L16.7026 6.77246C16.7674 6.70258 16.8479 6.64509 16.9391 6.60358C17.0303 6.56207 17.1303 6.53741 17.2329 6.53114C17.3355 6.52487 17.4384 6.53712 17.5353 6.56713C17.6323 6.59714 17.7211 6.64427 17.7964 6.7056C17.8716 6.76692 17.9316 6.84113 17.9727 6.92361C18.0138 7.00608 18.035 7.09507 18.0352 7.18504C18.0353 7.27501 18.0142 7.36404 17.9734 7.4466C17.9325 7.52916 17.8727 7.60349 17.7976 7.66496L10.8001 14.2275C10.7302 14.2934 10.6455 14.3461 10.5513 14.3823C10.4571 14.4184 10.3554 14.4372 10.2526 14.4375Z" fill="#BEBDC0"/>
</g>
<defs>
<clipPath id="clip0_11_583">
<rect width="24" height="21" fill="white"/>
</clipPath>
</defs>
</svg>
