<svg width="24" height="21" viewBox="0 0 24 21" fill="none" xmlns="http://www.w3.org/2000/svg">
<g clip-path="url(#clip0_11_576)">
<path d="M24 2.01114C24 0.90042 22.9709 0 21.7016 0H2.29844C1.02905 0 0 0.90042 0 2.01114V18.9889C0 20.0996 1.02905 21 2.29844 21H21.7015C22.9709 21 24 20.0996 24 18.9889L24 2.01114ZM2.32567 1.62963H21.7333C21.9727 1.62963 22.1376 1.77163 22.1376 1.98105V11.5432H16.5119C15.997 11.5432 15.5797 11.8928 15.5797 12.3432C15.5797 14.1198 13.9278 15.5574 11.8975 15.5574C9.91809 15.5574 8.29851 14.18 8.2183 12.465C8.2265 12.4215 8.23073 12.3906 8.23073 12.3452C8.23073 11.8947 7.81336 11.5432 7.29851 11.5432H1.86243V1.98105C1.86243 1.77163 2.08635 1.62963 2.32567 1.62963ZM21.7333 19.3704H2.32567C2.08635 19.3704 1.86243 19.1721 1.86243 18.9627V13.1728H6.42911C6.87359 15.4568 9.15652 17.2105 11.8974 17.2105C14.6383 17.2105 16.9213 15.4568 17.3657 13.1728H22.1376V18.9627C22.1376 19.1721 21.9727 19.3704 21.7333 19.3704Z" fill="#BEBDC0"/>
<path d="M6.7391 5.41979H17.2731C17.788 5.41979 18.2053 5.05548 18.2053 4.60498C18.2053 4.15447 17.788 3.79016 17.2731 3.79016H6.7391C6.22424 3.79016 5.80688 4.15447 5.80688 4.60498C5.80688 5.05548 6.22424 5.41979 6.7391 5.41979Z" fill="#BEBDC0"/>
<path d="M6.7391 9.17284H17.2731C17.788 9.17284 18.2053 8.80852 18.2053 8.35803C18.2053 7.90753 17.788 7.54321 17.2731 7.54321H6.7391C6.22424 7.54321 5.80688 7.90753 5.80688 8.35803C5.80688 8.80852 6.22424 9.17284 6.7391 9.17284Z" fill="#BEBDC0"/>
</g>
<defs>
<clipPath id="clip0_11_576">
<rect width="24" height="21" fill="white"/>
</clipPath>
</defs>
</svg>
