<svg width="24" height="21" viewBox="0 0 24 21" fill="none" xmlns="http://www.w3.org/2000/svg">
<g clip-path="url(#clip0_11_77)">
<path d="M5.30347 0C4.27386 0 3.42847 0.739717 3.42847 1.64062C3.42847 2.54153 4.27386 3.28125 5.30347 3.28125C6.15902 3.28125 6.87853 2.76771 7.10034 2.07812H11.2761V4.45361L11.0398 4.24683L9.21558 5.84302L9.97729 6.50952C9.82026 6.76158 9.69723 7.02547 9.60425 7.30078H8.52612V7.99121H7.1394C6.91759 7.30163 6.19808 6.78809 5.34253 6.78809C4.31292 6.78809 3.46753 7.5278 3.46753 8.42871C3.46753 9.32962 4.31292 10.0693 5.34253 10.0693C6.19808 10.0693 6.91759 9.55579 7.1394 8.86621H8.52612V9.55664H9.60425C9.69722 9.83152 9.82046 10.0945 9.97729 10.3462L9.21558 11.0144L11.0398 12.6106L11.2761 12.4038V14.7793H7.10034C6.87853 14.0897 6.15902 13.5762 5.30347 13.5762C4.27386 13.5762 3.42847 14.3159 3.42847 15.2168C3.42847 16.1177 4.27386 16.8574 5.30347 16.8574C6.15902 16.8574 6.87853 16.3439 7.10034 15.6543H12.2761V12.1389C12.416 12.1884 12.558 12.2329 12.7039 12.2705V13.2139H15.2839V12.2705C15.4063 12.2388 15.5251 12.1996 15.6433 12.1594V15.6543H20.8191C21.0409 16.3439 21.7604 16.8574 22.616 16.8574C23.6456 16.8574 24.491 16.1177 24.491 15.2168C24.491 14.3159 23.6456 13.5762 22.616 13.5762C21.7604 13.5762 21.0409 14.0897 20.8191 14.7793H16.6433V12.3423L16.948 12.6089L18.7742 11.0144L18.0105 10.3462C18.1671 10.0945 18.2908 9.8315 18.3835 9.55664H19.4617V8.86621H20.8191C21.0409 9.55579 21.7604 10.0693 22.616 10.0693C23.6456 10.0693 24.491 9.32962 24.491 8.42871C24.491 7.5278 23.6456 6.78809 22.616 6.78809C21.7604 6.78809 21.0409 7.30163 20.8191 7.99121H19.4617V7.30078H18.9617H18.3835C18.2906 7.0259 18.1673 6.76291 18.0105 6.51123L18.7742 5.84302L16.948 4.24683L16.6433 4.51343V2.07812H20.8191C21.0409 2.76771 21.7604 3.28125 22.616 3.28125C23.6456 3.28125 24.491 2.54153 24.491 1.64062C24.491 0.739717 23.6456 -8.74999e-07 22.616 0C21.7604 0 21.0409 0.513542 20.8191 1.20312H15.6433V4.698C15.5249 4.65801 15.4065 4.61857 15.2839 4.58691V3.64355H12.7039V4.58691C12.5581 4.62457 12.4161 4.66902 12.2761 4.71851V1.20312H7.10034C6.87853 0.513542 6.15902 0 5.30347 0ZM13.9929 6.27026C15.3489 6.27026 16.4597 7.24226 16.4597 8.42871C16.4597 9.61516 15.3489 10.5872 13.9929 10.5872C12.637 10.5872 11.5281 9.61516 11.5281 8.42871C11.5281 7.24226 12.637 6.27026 13.9929 6.27026ZM5.34253 7.66309C5.8317 7.66309 6.21753 8.00069 6.21753 8.42871C6.21753 8.85673 5.8317 9.19434 5.34253 9.19434C4.85336 9.19434 4.46753 8.85673 4.46753 8.42871C4.46753 8.00069 4.85336 7.66309 5.34253 7.66309ZM22.616 7.66309C23.1051 7.66309 23.491 8.00069 23.491 8.42871C23.491 8.85673 23.1051 9.19434 22.616 9.19434C22.1268 9.19434 21.741 8.85673 21.741 8.42871C21.741 8.00069 22.1268 7.66309 22.616 7.66309Z" fill="#BEBDC0"/>
</g>
<defs>
<clipPath id="clip0_11_77">
<rect width="24" height="21" fill="white"/>
</clipPath>
</defs>
</svg>
