<svg width="21" height="21" viewBox="0 0 21 21" fill="none" xmlns="http://www.w3.org/2000/svg">
<g clip-path="url(#clip0_11_1248)">
<path d="M10.5 20.3438C8.55309 20.3438 6.64991 19.7664 5.03111 18.6848C3.41231 17.6031 2.15062 16.0658 1.40557 14.267C0.660515 12.4683 0.465576 10.4891 0.845399 8.57958C1.22522 6.67008 2.16275 4.9161 3.53942 3.53942C4.9161 2.16275 6.67008 1.22522 8.57958 0.845399C10.4891 0.465576 12.4683 0.660515 14.267 1.40557C16.0658 2.15062 17.6031 3.41231 18.6848 5.03111C19.7664 6.64991 20.3438 8.55309 20.3438 10.5C20.3438 13.1107 19.3066 15.6145 17.4606 17.4606C15.6145 19.3066 13.1107 20.3438 10.5 20.3438ZM10.5 1.96875C8.81268 1.96875 7.16325 2.4691 5.7603 3.40653C4.35734 4.34396 3.26387 5.67635 2.61816 7.23524C1.97245 8.79412 1.8035 10.5095 2.13268 12.1644C2.46186 13.8193 3.27438 15.3394 4.4675 16.5325C5.66062 17.7256 7.18074 18.5381 8.83564 18.8673C10.4905 19.1965 12.2059 19.0276 13.7648 18.3819C15.3237 17.7361 16.6561 16.6427 17.5935 15.2397C18.5309 13.8368 19.0313 12.1873 19.0313 10.5C19.0313 8.23738 18.1324 6.06742 16.5325 4.4675C14.9326 2.86758 12.7626 1.96875 10.5 1.96875Z" fill="#101820"/>
<path d="M13.2825 14.2144L10.0341 10.9659C9.97325 10.9046 9.92513 10.8319 9.89247 10.7519C9.85982 10.672 9.84326 10.5864 9.84376 10.5V5.25H11.1563V10.2309L14.2144 13.2825L13.2825 14.2144Z" fill="#101820"/>
</g>
<defs>
<clipPath id="clip0_11_1248">
<rect width="21" height="21" fill="white"/>
</clipPath>
</defs>
</svg>
