<svg width="21" height="21" viewBox="0 0 21 21" fill="none" xmlns="http://www.w3.org/2000/svg">
<path d="M20.0156 3.60938V17.3906C20.0156 17.5647 19.9465 17.7316 19.8234 17.8547C19.7003 17.9777 19.5334 18.0469 19.3594 18.0469H18.375C18.288 18.0469 18.2045 18.0123 18.143 17.9508C18.0814 17.8892 18.0469 17.8058 18.0469 17.7188V16.4526C18.0469 16.4089 18.0557 16.3657 18.0727 16.3254C18.0897 16.2852 18.1146 16.2487 18.1458 16.2182C18.6858 15.6886 19.002 14.9721 19.0294 14.2162C19.0568 13.4604 18.7932 12.7228 18.293 12.1556C18.246 12.1024 18.1973 12.0512 18.1467 12.0022C18.1152 11.9716 18.0902 11.9351 18.073 11.8947C18.0559 11.8543 18.047 11.8109 18.0469 11.767V7.54688C17.3507 7.54688 16.683 7.27031 16.1907 6.77803C15.6984 6.28575 15.4219 5.61807 15.4219 4.92188H5.57812C5.57812 5.61807 5.30156 6.28575 4.80928 6.77803C4.317 7.27031 3.64932 7.54688 2.95312 7.54688V13.4531C3.64932 13.4531 4.317 13.7297 4.80928 14.222C5.30156 14.7143 5.57812 15.3819 5.57812 16.0781H13.7361C13.78 16.0783 13.8235 16.0872 13.8639 16.1043C13.9043 16.1214 13.9409 16.1465 13.9715 16.178C13.9843 16.1911 13.9973 16.2041 14.0104 16.217C14.0416 16.2476 14.0665 16.2841 14.0835 16.3244C14.1005 16.3647 14.1093 16.4079 14.1094 16.4517V17.7188C14.1094 17.8058 14.0748 17.8892 14.0133 17.9508C13.9517 18.0123 13.8683 18.0469 13.7812 18.0469H1.64062C1.46658 18.0469 1.29966 17.9777 1.17659 17.8547C1.05352 17.7316 0.984375 17.5647 0.984375 17.3906V3.60938C0.984375 3.43533 1.05352 3.26841 1.17659 3.14534C1.29966 3.02227 1.46658 2.95312 1.64062 2.95312H19.3594C19.5334 2.95312 19.7003 3.02227 19.8234 3.14534C19.9465 3.26841 20.0156 3.43533 20.0156 3.60938ZM6.89062 8.20312H14.1094C14.1964 8.20312 14.2799 8.16856 14.3414 8.10702C14.4029 8.04548 14.4375 7.96202 14.4375 7.875C14.4375 7.78798 14.4029 7.70452 14.3414 7.64298C14.2799 7.58144 14.1964 7.54688 14.1094 7.54688H6.89062C6.8036 7.54688 6.72014 7.58144 6.65861 7.64298C6.59707 7.70452 6.5625 7.78798 6.5625 7.875C6.5625 7.96202 6.59707 8.04548 6.65861 8.10702C6.72014 8.16856 6.8036 8.20312 6.89062 8.20312ZM6.89062 10.8281H14.1094C14.1964 10.8281 14.2799 10.7936 14.3414 10.732C14.4029 10.6705 14.4375 10.587 14.4375 10.5C14.4375 10.413 14.4029 10.3295 14.3414 10.268C14.2799 10.2064 14.1964 10.1719 14.1094 10.1719H6.89062C6.8036 10.1719 6.72014 10.2064 6.65861 10.268C6.59707 10.3295 6.5625 10.413 6.5625 10.5C6.5625 10.587 6.59707 10.6705 6.65861 10.732C6.72014 10.7936 6.8036 10.8281 6.89062 10.8281ZM13.2422 12.7969H6.90186C6.81718 12.7958 6.73522 12.8267 6.67241 12.8836C6.6096 12.9404 6.57059 13.0188 6.5632 13.1032C6.56021 13.148 6.56646 13.193 6.58156 13.2353C6.59667 13.2776 6.6203 13.3164 6.651 13.3492C6.68169 13.382 6.7188 13.4081 6.76002 13.426C6.80124 13.4439 6.84569 13.4531 6.89062 13.4531H13.1029C13.1299 13.4533 13.1561 13.4445 13.1776 13.4282C13.199 13.4119 13.2145 13.3889 13.2215 13.3629C13.2568 13.2278 13.3017 13.0953 13.3559 12.9666C13.3637 12.9479 13.3667 12.9276 13.3647 12.9075C13.3627 12.8874 13.3558 12.8681 13.3445 12.8513C13.3333 12.8345 13.318 12.8207 13.3002 12.8112C13.2823 12.8017 13.2624 12.7968 13.2422 12.7969ZM17.8008 12.59C17.5932 12.3549 17.3396 12.1649 17.0558 12.0316C16.7719 11.8983 16.4638 11.8245 16.1504 11.8148C15.8369 11.8051 15.5248 11.8597 15.2333 11.9752C14.9418 12.0907 14.677 12.2647 14.4552 12.4865C14.2335 12.7082 14.0595 12.973 13.944 13.2646C13.8285 13.5561 13.7739 13.8682 13.7836 14.1816C13.7933 14.4951 13.8671 14.8032 14.0004 15.087C14.1337 15.3709 14.3237 15.6244 14.5587 15.832C14.5883 15.8581 14.6151 15.8806 14.6405 15.9006C15.089 16.2606 15.6562 16.4392 16.23 16.4012C16.8039 16.3632 17.3426 16.1114 17.7397 15.6954C18.1368 15.2794 18.3634 14.7295 18.3747 14.1545C18.386 13.5796 18.1812 13.0212 17.8008 12.59ZM16.0781 17.0625C15.6856 17.0622 15.2971 16.9839 14.9352 16.8321C14.9165 16.8244 14.8962 16.8214 14.8761 16.8234C14.856 16.8254 14.8368 16.8323 14.82 16.8436C14.8032 16.8548 14.7895 16.8701 14.78 16.8879C14.7705 16.9057 14.7656 16.9256 14.7656 16.9458V19.7179C14.7656 19.776 14.781 19.833 14.8103 19.8831C14.8395 19.9333 14.8815 19.9748 14.9321 20.0034C14.9826 20.032 15.0398 20.0467 15.0979 20.046C15.1559 20.0452 15.2127 20.0291 15.2625 19.9993L15.9093 19.6112C15.9603 19.5806 16.0187 19.5644 16.0781 19.5644C16.1376 19.5644 16.1959 19.5806 16.2469 19.6112L16.8937 19.9993C16.9435 20.0291 17.0003 20.0452 17.0584 20.046C17.1164 20.0467 17.1737 20.032 17.2242 20.0034C17.2747 19.9748 17.3167 19.9333 17.346 19.8831C17.3752 19.833 17.3906 19.776 17.3906 19.7179V16.9459C17.3907 16.9257 17.3857 16.9058 17.3763 16.888C17.3668 16.8702 17.353 16.8549 17.3363 16.8437C17.3195 16.8324 17.3002 16.8255 17.2801 16.8235C17.26 16.8215 17.2398 16.8245 17.2211 16.8322C16.8591 16.9839 16.4706 17.0622 16.0781 17.0625Z" fill="#3B3B3B"/>
</svg>
