<svg width="24" height="21" viewBox="0 0 24 21" fill="none" xmlns="http://www.w3.org/2000/svg">
<g clip-path="url(#clip0_9_70)">
<path d="M5.54053 8.199L2.95725 10.7092L1.92037 9.8023C1.48092 9.41778 0.769121 9.41778 0.329434 9.8023C-0.110254 10.1868 -0.11002 10.8096 0.329434 11.1944L2.20443 12.835C2.41537 13.0224 2.70271 13.125 2.95771 13.125C2.96797 13.125 2.97677 13.125 2.98703 13.1243C3.29612 13.1173 3.58749 13 3.79421 12.7994L7.16921 9.51816C7.58523 9.11379 7.54712 8.49154 7.08573 8.12732C6.66553 7.76424 5.95772 7.79705 5.54053 8.199ZM5.54053 1.63814L2.95725 4.14666L1.92037 3.2398C1.48092 2.85528 0.769121 2.85528 0.329434 3.2398C-0.110254 3.62432 -0.11002 4.24715 0.329434 4.63187L2.20443 6.2725C2.41537 6.45994 2.70271 6.56248 2.95771 6.56248C2.96797 6.56248 2.97677 6.56248 2.98703 6.56184C3.29612 6.55479 3.58749 6.43752 3.79421 6.23691L7.16921 2.95566C7.58523 2.55129 7.54712 1.92904 7.08573 1.56482C6.66553 1.20215 5.95772 1.23414 5.54053 1.63814ZM2.2499 15.0568C1.00725 15.0568 -9.76582e-05 15.9382 -9.76582e-05 17.0256C-9.76582e-05 18.1129 1.00725 18.9943 2.2499 18.9943C3.49256 18.9943 4.4999 18.1129 4.4999 17.0256C4.4999 15.9756 3.49256 15.0568 2.2499 15.0568ZM11.9999 5.24998H22.4999C23.3282 5.24998 23.9999 4.66222 23.9999 3.93748C23.9999 3.21273 23.3282 2.62498 22.4999 2.62498H11.9999C11.1702 2.62498 10.4999 3.21273 10.4999 3.93748C10.4999 4.66222 11.1702 5.24998 11.9999 5.24998ZM22.4999 9.18748H11.9999C11.1702 9.18748 10.4999 9.774 10.4999 10.5C10.4999 11.226 11.1716 11.8125 11.9999 11.8125H22.4999C23.3282 11.8125 23.9999 11.2247 23.9999 10.5C23.9999 9.77523 23.3296 9.18748 22.4999 9.18748ZM22.4999 15.75H8.9999C8.17162 15.75 7.4999 16.3377 7.4999 17.0625C7.4999 17.7872 8.17162 18.375 8.9999 18.375H22.4999C23.3282 18.375 23.9999 17.7872 23.9999 17.0625C23.9999 16.3377 23.3296 15.75 22.4999 15.75Z" fill="#BEBDC0"/>
</g>
<defs>
<clipPath id="clip0_9_70">
<rect width="24" height="21" fill="white"/>
</clipPath>
</defs>
</svg>
